<?xml version="1.0" standalone="no"?>
<!DOCTYPE svg PUBLIC "-//W3C//DTD SVG 20010904//EN"
 "http://www.w3.org/TR/2001/REC-SVG-20010904/DTD/svg10.dtd">
<svg version="1.0" xmlns="http://www.w3.org/2000/svg"
 width="300.000000pt" height="300.000000pt" viewBox="0 0 300.000000 300.000000"
 preserveAspectRatio="xMidYMid meet">
<metadata>
Created by potrace 1.10, written by Peter Selinger 2001-2011
</metadata>
<g transform="translate(0.000000,300.000000) scale(0.100000,-0.100000)"
fill="#000000" stroke="none">
<path d="M1440 2547 c0 -2 44 -37 97 -78 194 -147 361 -339 379 -436 21 -109
-69 -169 -269 -180 l-99 -6 45 -46 c82 -84 114 -182 83 -255 -9 -22 -14 -41
-12 -43 8 -8 204 46 279 77 90 37 180 113 208 175 74 163 -60 383 -353 582
-118 80 -358 221 -358 210z m480 -344 c214 -183 276 -386 154 -500 -36 -33
-106 -79 -134 -88 -14 -4 -29 -11 -35 -15 -13 -10 -175 -54 -180 -49 -2 2 -5
27 -6 54 -4 58 -15 96 -46 148 -23 38 -30 69 -15 65 4 -1 32 2 62 6 249 37
297 190 125 400 -25 31 -45 58 -45 61 0 9 66 -35 120 -82z"/>
<path d="M1320 2231 c-14 -4 -27 -15 -28 -25 -3 -14 0 -17 13 -12 9 3 23 6 30
6 8 0 19 9 25 20 12 22 5 24 -40 11z"/>
<path d="M1240 2200 c-14 -3 -26 -14 -28 -23 -3 -15 1 -17 25 -11 35 8 36 9
31 26 -2 10 -11 12 -28 8z"/>
<path d="M1085 2142 c-90 -36 -140 -68 -191 -124 -79 -85 -85 -182 -20 -314
69 -138 243 -289 518 -447 114 -66 158 -89 158 -83 0 2 -34 29 -75 60 -344
259 -480 489 -340 576 45 28 148 50 234 50 l74 0 -47 50 c-57 61 -85 120 -86
177 0 42 0 42 -30 37 -24 -5 -30 -3 -30 10 0 13 -6 15 -27 10 -45 -11 -48 -10
-47 9 2 23 -8 21 -91 -11z m146 -42 c18 0 62 -44 53 -52 -7 -8 32 -97 52 -120
21 -22 10 -38 -28 -38 -38 0 -143 -27 -180 -46 -15 -8 -40 -32 -54 -54 -24
-35 -26 -47 -21 -98 6 -68 27 -114 91 -196 25 -32 46 -61 46 -63 0 -13 -71 41
-148 112 -253 232 -230 464 57 566 38 13 50 13 80 3 20 -7 43 -13 52 -14z"/>
<path d="M1230 991 l0 -50 -35 6 c-46 7 -75 -17 -75 -64 0 -56 63 -96 98 -61
9 9 12 9 12 -1 0 -7 9 -11 21 -9 19 3 20 10 22 116 2 110 2 112 -20 112 -21 0
-23 -5 -23 -49z m-5 -111 c0 -29 -34 -40 -54 -17 -18 23 -2 49 28 45 20 -2 26
-8 26 -28z"/>
<path d="M1793 1030 c-57 -23 -53 -89 7 -120 22 -11 40 -27 40 -34 0 -22 -31
-28 -58 -10 -20 13 -26 14 -33 3 -16 -25 -4 -44 34 -53 49 -12 88 1 105 37 17
35 3 61 -48 87 -54 28 -55 55 -1 46 31 -5 40 -2 45 11 7 16 -9 33 -31 33 -6 0
-17 2 -25 4 -7 3 -23 1 -35 -4z"/>
<path d="M660 920 l0 -110 25 0 25 0 0 110 0 110 -25 0 -25 0 0 -110z"/>
<path d="M1044 1015 c-4 -9 -2 -21 4 -27 16 -16 47 -5 47 17 0 26 -42 34 -51
10z"/>
<path d="M1644 975 c4 -14 2 -25 -4 -25 -5 0 -10 -9 -10 -20 0 -11 5 -20 10
-20 6 0 10 -17 10 -38 0 -43 14 -62 47 -62 16 0 23 6 23 20 0 11 -7 20 -15 20
-10 0 -15 10 -15 30 0 20 5 30 15 30 8 0 15 9 15 20 0 11 -7 20 -15 20 -9 0
-15 9 -15 25 0 20 -5 25 -26 25 -23 0 -25 -3 -20 -25z"/>
<path d="M2210 975 c0 -14 -4 -25 -10 -25 -5 0 -10 -9 -10 -20 0 -11 5 -20 10
-20 6 0 10 -14 10 -31 0 -46 16 -69 50 -69 32 0 43 26 15 36 -9 4 -15 19 -15
40 0 26 3 32 15 28 10 -4 15 0 15 15 0 12 -6 21 -15 21 -9 0 -15 9 -15 25 0
20 -5 25 -25 25 -20 0 -25 -5 -25 -25z"/>
<path d="M740 879 c0 -67 1 -69 25 -69 23 0 25 3 25 49 0 35 4 51 16 55 26 10
34 -3 34 -55 0 -46 2 -49 25 -49 24 0 25 3 25 54 0 72 -14 85 -90 85 l-60 -1
0 -69z"/>
<path d="M930 930 c-44 -44 -8 -120 58 -120 50 0 52 34 2 41 -19 3 -25 10 -25
29 0 19 6 26 25 29 26 3 42 19 34 33 -10 16 -74 8 -94 -12z"/>
<path d="M1050 880 c0 -63 2 -70 20 -70 18 0 20 7 20 70 0 63 -2 70 -20 70
-18 0 -20 -7 -20 -70z"/>
<path d="M1320 930 c-45 -45 -11 -120 53 -120 21 0 41 8 52 20 20 22 20 21
-44 24 -19 0 -36 7 -39 15 -3 10 7 12 47 10 46 -4 51 -2 51 17 0 50 -81 73
-120 34z"/>
<path d="M1464 879 c-1 -66 0 -69 22 -69 22 0 24 4 24 44 0 44 19 74 40 61 5
-3 10 -28 10 -56 0 -46 2 -49 25 -49 24 0 25 3 25 54 0 71 -13 84 -87 84 l-58
0 -1 -69z"/>
<path d="M1900 945 c0 -2 14 -28 31 -56 l30 -52 -26 -49 -26 -48 28 0 c26 0
33 9 78 98 27 53 51 100 53 105 2 4 -8 7 -23 7 -21 0 -29 -8 -42 -37 l-15 -38
-19 38 c-15 28 -26 37 -44 37 -14 0 -25 -2 -25 -5z"/>
<path d="M2090 935 c-18 -21 -8 -48 24 -63 18 -9 25 -17 18 -24 -6 -6 -17 -6
-30 1 -16 8 -21 7 -26 -6 -8 -21 10 -33 50 -33 36 0 54 16 54 48 0 17 -8 27
-30 35 -36 14 -40 31 -6 25 22 -4 36 7 36 28 0 11 -79 2 -90 -11z"/>
<path d="M2320 930 c-62 -62 35 -159 106 -105 16 12 17 16 5 24 -8 5 -29 7
-48 4 -27 -5 -33 -2 -33 11 0 15 8 17 48 15 42 -3 47 -1 44 17 -10 53 -83 73
-122 34z"/>
<path d="M2470 879 c0 -62 2 -69 20 -69 17 0 20 7 20 44 0 44 19 74 40 61 5
-3 10 -28 10 -56 0 -46 1 -49 26 -49 26 0 26 2 22 45 -4 30 -1 48 8 56 22 18
34 0 34 -52 0 -46 2 -49 25 -49 23 0 25 3 25 51 0 28 -5 59 -10 70 -12 21 -59
26 -78 7 -8 -8 -15 -8 -24 -1 -7 6 -37 11 -65 11 l-53 0 0 -69z"/>
<path d="M1410 735 c-3 -5 -3 -32 1 -60 3 -27 7 -41 8 -30 1 18 2 19 12 3 15
-26 32 -23 19 3 -9 15 -8 24 1 35 7 9 8 14 1 14 -6 0 -14 -6 -19 -12 -5 -9
-10 -1 -13 22 -3 19 -7 31 -10 25z"/>
<path d="M1160 680 c0 -27 5 -50 10 -50 6 0 10 12 10 26 0 19 4 25 15 20 8 -3
15 -1 15 4 0 6 -7 10 -15 10 -8 0 -15 5 -15 10 0 6 9 10 20 10 11 0 20 5 20
10 0 6 -13 10 -30 10 -29 0 -30 -1 -30 -50z"/>
<path d="M1500 680 c0 -27 4 -50 8 -50 5 0 8 23 8 50 0 28 -3 50 -8 50 -4 0
-8 -22 -8 -50z"/>
<path d="M1542 718 c-7 -7 -12 -24 -12 -38 0 -14 5 -31 12 -38 15 -15 58 -16
58 -2 0 6 -11 10 -24 10 -15 0 -26 7 -29 20 -6 24 18 51 38 44 8 -4 15 -1 15
5 0 15 -43 14 -58 -1z"/>
<path d="M1610 720 c0 -5 5 -10 10 -10 6 0 10 -18 10 -40 0 -22 5 -40 10 -40
6 0 10 18 10 40 0 29 4 40 15 40 8 0 15 5 15 10 0 6 -16 10 -35 10 -19 0 -35
-4 -35 -10z"/>
<path d="M1713 713 c-4 -10 0 -21 11 -27 50 -30 53 -35 19 -36 -18 0 -33 -5
-33 -11 0 -6 14 -9 33 -7 42 4 50 39 12 56 -30 14 -26 33 5 25 11 -3 20 0 20
6 0 18 -60 13 -67 -6z"/>
<path d="M1225 680 c-7 -23 10 -50 30 -50 20 0 37 27 30 50 -4 13 -15 20 -30
20 -15 0 -26 -7 -30 -20z m45 -10 c0 -11 -7 -20 -15 -20 -8 0 -15 9 -15 20 0
11 7 20 15 20 8 0 15 -9 15 -20z"/>
<path d="M1301 662 c1 -35 2 -36 8 -8 3 16 12 31 20 34 8 3 12 -1 9 -9 -8 -21
11 -49 32 -49 11 0 20 5 20 10 0 6 -9 10 -20 10 -11 0 -20 5 -20 11 0 6 7 8
16 5 21 -8 34 1 28 18 -4 9 -21 14 -50 14 l-44 0 1 -36z"/>
<path d="M1797 694 c-13 -13 -7 -52 9 -58 24 -9 44 -7 44 4 0 6 -9 10 -20 10
-11 0 -20 5 -20 10 0 6 8 10 18 8 10 -2 17 3 17 12 0 16 -36 26 -48 14z"/>
<path d="M1860 665 c0 -19 5 -35 10 -35 6 0 10 11 10 24 0 37 17 40 29 6 11
-34 26 -39 34 -12 2 9 8 25 12 35 4 9 3 17 -3 17 -5 0 -13 -10 -16 -22 l-7
-23 -9 23 c-6 14 -18 22 -35 22 -22 0 -25 -4 -25 -35z"/>
<path d="M1995 680 c-4 -12 -1 -27 5 -35 14 -17 50 -20 50 -5 0 6 -9 10 -20
10 -27 0 -25 28 3 40 21 8 21 9 -5 9 -18 1 -29 -5 -33 -19z"/>
<path d="M2055 680 c-4 -12 -1 -27 5 -35 14 -17 50 -20 50 -5 0 6 -9 10 -20
10 -11 0 -20 4 -20 9 0 5 9 7 20 4 15 -4 20 0 20 16 0 29 -46 30 -55 1z"/>
<path d="M2124 688 c-4 -6 1 -17 11 -25 17 -12 17 -13 2 -13 -9 0 -17 -5 -17
-11 0 -6 10 -9 22 -7 26 3 38 38 14 38 -22 0 -20 17 2 23 13 4 12 5 -5 6 -12
0 -25 -4 -29 -11z"/>
</g>
</svg>
